<?xml version="1.0" encoding="UTF-8" standalone="no"?>
<svg width="200" height="200" viewBox="0 0 200 200" fill="none" xmlns="http://www.w3.org/2000/svg">
  <rect width="200" height="200" rx="20" fill="#980019"/>
  <path d="M40 100 L40 160 L60 160 L60 130" stroke="white" stroke-width="8" fill="none"/>
  <path d="M75 120 L75 160 L95 160 L95 120" stroke="white" stroke-width="8" fill="none"/>
  <path d="M110 80 L110 160 L130 160 L130 80" stroke="white" stroke-width="8" fill="none"/>
  <path d="M145 40 L145 160 L165 160 L165 40" stroke="white" stroke-width="8" fill="none"/>
  <path d="M40 160 L165 160" stroke="white" stroke-width="8" fill="none"/>
  <path d="M30 120 L50 100 L70 130 L90 80 L110 110 L130 70 L150 90 L170 40" stroke="white" stroke-width="5" fill="none" stroke-dasharray="5,5"/>
  <circle cx="50" cy="100" r="6" fill="white"/>
  <circle cx="70" cy="130" r="6" fill="white"/>
  <circle cx="90" cy="80" r="6" fill="white"/>
  <circle cx="110" cy="110" r="6" fill="white"/>
  <circle cx="130" cy="70" r="6" fill="white"/>
  <circle cx="150" cy="90" r="6" fill="white"/>
  <circle cx="170" cy="40" r="6" fill="white"/>
</svg>